<svg width="31" height="39" viewBox="0 0 31 39" fill="none"
  xmlns="http://www.w3.org/2000/svg">
  <path d="M30.4084 1.44151L25.4318 0.721347C25.2845 0.69254 25.1373 0.75015 25.0784 0.807763L22.9582 3.51557C22.8109 3.68841 22.7815 3.91887 22.8404 4.12051C22.8993 4.32216 22.7226 4.495 22.5165 4.46619L20.7791 4.0917C20.514 4.03409 20.2196 4.12052 20.0429 4.35097L13.1522 12.9929C13.0344 13.1658 12.7988 13.2234 12.5927 13.137L9.97187 11.9847C9.73629 11.8695 9.47127 11.8983 9.26514 12.0423L7.94001 12.9353C7.73387 13.0793 7.4394 13.1082 7.20382 12.9929L6.55598 12.6761C6.14372 12.4744 5.64311 12.7049 5.52532 13.137L5.05416 15.1822C4.93637 15.6719 5.1425 16.1616 5.58421 16.4209L6.58542 17.0258L9.79519 18.9559L11.3559 19.9065C11.7976 20.1657 12.3571 20.1081 12.7399 19.7913L15.3607 17.5443C15.5669 17.3715 15.8908 17.3139 16.1264 17.4579L16.9215 17.8612C17.1865 18.0053 17.5104 17.9476 17.7165 17.746L19.0417 16.5361C19.2478 16.3345 19.5717 16.3057 19.8073 16.4209L21.7803 17.3139C22.0748 17.4579 22.4281 17.3715 22.6343 17.1123L23.5471 15.96L30.4673 7.28923C30.7912 6.88594 30.585 6.281 30.055 6.16578L28.5237 5.82009C28.1998 5.76248 28.0526 5.35919 28.2881 5.12874L30.6734 2.21928C30.909 1.8736 30.7617 1.49912 30.4084 1.44151Z" fill="#E1E1E6"/>
  <path d="M7.58384 18.897C7.4366 18.8106 7.28936 18.9546 7.34826 19.0986L8.08444 20.9999C8.14334 21.1439 8.14333 21.2879 8.11389 21.432L7.46605 23.9093C7.4366 24.0822 7.49549 24.255 7.61328 24.3414L9.46847 25.7529C9.64515 25.8682 9.88073 25.8682 10.028 25.7241L11.9715 24.0534C12.0893 23.9669 12.2365 23.9093 12.3543 23.8805L14.5629 23.6501C14.7101 23.6213 14.769 23.4196 14.6218 23.3332L7.58384 18.897Z" fill="#E1E1E6"/>
  <path d="M6.93619 25.295C6.8184 25.2086 6.64171 25.1798 6.49448 25.2374L4.93377 25.9864C4.84543 26.0152 4.78653 26.1016 4.72763 26.188L1.40008 34.2251C1.40008 34.2539 1.40008 34.2539 1.40008 34.2827C1.42953 34.3115 1.45897 34.3403 1.51787 34.3403L2.2835 34.0522C2.31295 34.0522 2.34239 34.0522 2.37184 34.0522C2.40129 34.081 2.43074 34.1386 2.40129 34.1675L0.0160511 37.9987C-0.0428437 38.0851 0.0749485 38.1716 0.133843 38.0851L8.76193 29.616C8.85027 29.5296 8.87972 29.4432 8.90916 29.328L9.08585 27.1387C9.08585 26.9946 9.02695 26.8794 8.93861 26.793L6.93619 25.295Z" fill="#E1E1E6"/>
</svg>
